<?xml version="1.0" encoding="UTF-8"?>
<svg version="1.1" xmlns="http://www.w3.org/2000/svg" width="1024" height="1024">
<path d="M0 0 C0.77046661 0.0015509 1.54093323 0.00310181 2.33474731 0.00469971 C11.37282973 0.02603391 20.40754905 0.08181262 29.4375 0.5 C30.51354492 0.54616455 30.51354492 0.54616455 31.61132812 0.59326172 C35.73188392 0.82725181 39.71915832 1.39082052 43.78515625 2.1015625 C47.77747271 2.79677785 51.70927872 3.31984583 55.75 3.625 C71.26663829 4.82590074 86.09699704 7.646731 101.25 11.125 C102.7045459 11.45685303 102.7045459 11.45685303 104.18847656 11.79541016 C106.9872169 12.4379539 109.7832028 13.09106185 112.578125 13.75 C113.82665253 14.04064331 113.82665253 14.04064331 115.10040283 14.3371582 C120.2496453 15.57663766 125.06721738 17.1963634 130 19.125 C132.45310626 19.89192401 134.91164161 20.64167318 137.375 21.375 C145.58812035 23.89052169 153.55040578 26.91949336 161.51513672 30.12744141 C164.17342009 31.19462021 166.83853755 32.24362196 169.50390625 33.29296875 C179.75942075 37.36673853 189.61534835 41.72348803 199.22900391 47.14111328 C201.06945661 48.16358701 202.92660499 49.14678054 204.79296875 50.12109375 C213.0953238 54.45551241 221.08234422 59.11318464 229 64.125 C229.94617188 64.71152344 230.89234375 65.29804688 231.8671875 65.90234375 C238.46843414 70.02578535 244.76076238 74.47522596 251 79.125 C251.61568848 79.58068359 252.23137695 80.03636719 252.86572266 80.50585938 C275.16962984 97.01434897 275.16962984 97.01434897 283.32421875 105.44140625 C287.00992458 109.14429486 291.03608285 112.50328054 295.0625 115.828125 C296.0215625 116.62476563 296.0215625 116.62476563 297 117.4375 C297.86625 118.14326172 297.86625 118.14326172 298.75 118.86328125 C300 120.125 300 120.125 300 122.125 C300.66 122.125 301.32 122.125 302 122.125 C303.4453125 123.59375 303.4453125 123.59375 305.125 125.625 C308.37893881 129.4749234 311.84772718 132.98564335 315.49609375 136.4609375 C317 138.125 317 138.125 317 140.125 C317.86625 140.4653125 317.86625 140.4653125 318.75 140.8125 C321.59739809 142.47348222 323.12067193 144.44024561 325 147.125 C325 147.785 325 148.445 325 149.125 C325.66 149.125 326.32 149.125 327 149.125 C328.9453125 151.20703125 328.9453125 151.20703125 331.125 153.9375 C331.84945312 154.83082031 332.57390625 155.72414062 333.3203125 156.64453125 C335 159.125 335 159.125 335 162.125 C335.59683594 162.36863281 336.19367187 162.61226562 336.80859375 162.86328125 C339.42198827 164.36796294 340.41451624 165.79626905 342.0625 168.3125 C345.60643268 173.59380532 349.35024486 178.69431037 353.17993164 183.77026367 C355.89040543 187.41698613 358.02667995 191.01296603 360 195.125 C360.93000324 196.58098867 361.88730004 198.02001708 362.875 199.4375 C365.32767598 203.05639936 367.51690442 206.72790177 369.59765625 210.5703125 C371.2832185 213.6409468 373.05136934 216.65959115 374.8125 219.6875 C380.60220537 229.74990323 386.13481809 240.08550043 390.11328125 251.01171875 C390.96692025 253.20989367 390.96692025 253.20989367 392.41796875 255.3671875 C394.47352666 258.95045635 395.69622855 262.65458087 397 266.5625 C398.94617785 272.40164077 398.94617785 272.40164077 401.49609375 277.9921875 C403.62917391 282.4356428 404.78621442 287.06315084 406.0625 291.8125 C406.56926105 293.69274945 407.08078064 295.57172457 407.59765625 297.44921875 C407.81945557 298.27510498 408.04125488 299.10099121 408.26977539 299.9519043 C408.97946895 302.37671221 408.97946895 302.37671221 411 305.125 C411.63842773 307.31054688 411.63842773 307.31054688 412.18359375 309.84375 C412.38919922 310.77703125 412.59480469 311.7103125 412.80664062 312.671875 C413.01482422 313.64640625 413.22300781 314.6209375 413.4375 315.625 C413.8503774 317.53179025 414.2657441 319.43804318 414.68359375 321.34375 C415.00251587 322.79865845 415.00251587 322.79865845 415.32788086 324.28295898 C415.95043189 326.91540233 416.69039304 329.47671124 417.46875 332.06640625 C419.62689959 339.83408412 420.57750699 347.82932186 421.67993164 355.80053711 C422.05751201 358.52648905 422.44677065 361.25057091 422.83789062 363.97460938 C423.60209882 369.35267963 424.31480027 374.73632978 425 380.125 C425.1049176 380.93656555 425.20983521 381.7481311 425.31793213 382.58428955 C427.03908075 396.25702736 427.31062294 409.8355218 427.26074219 423.60644531 C427.25001338 427.12061813 427.26070859 430.63427996 427.2734375 434.1484375 C427.28229098 447.59350754 426.73947501 460.78941563 425 474.125 C424.76506836 475.92880127 424.76506836 475.92880127 424.52539062 477.76904297 C424.09184116 480.87320131 423.62063148 483.96769653 423.125 487.0625 C422.95210449 488.15602783 422.77920898 489.24955566 422.60107422 490.3762207 C417.85327978 519.97998886 410.92825186 549.1352937 400 577.125 C399.72575195 577.8277002 399.45150391 578.53040039 399.16894531 579.25439453 C388.87310058 605.53813909 377.08759406 630.75585266 361.6953125 654.5 C360.58678815 656.2164248 359.49729679 657.9453316 358.4296875 659.6875 C350.94304069 671.8397383 342.00718089 683.07324431 333 694.125 C331.97712891 695.40890625 331.97712891 695.40890625 330.93359375 696.71875 C325.41757036 703.58664317 319.5531515 710.04882529 313.53515625 716.47216797 C312.03856185 718.08348223 310.56313248 719.71152475 309.09375 721.34765625 C297.38829178 734.33639121 284.41717847 745.93684605 271 757.125 C270.19820312 757.7953125 269.39640625 758.465625 268.5703125 759.15625 C259.99076558 766.1623852 250.95465034 772.61043175 242 779.125 C241.34193359 779.60557861 240.68386719 780.08615723 240.00585938 780.58129883 C237.04525527 782.72473512 234.11300295 784.73984258 230.875 786.4375 C227.22197891 788.41392514 223.70378147 790.53938003 220.1875 792.75 C180.75318612 817.12674118 136.78432185 834.35746106 91.39697266 843.61816406 C88.42976348 844.24557558 85.49960872 844.99529922 82.5625 845.75 C74.40447929 847.67017243 66.04643611 848.45784134 57.734375 849.43359375 C53.40804303 849.9425328 49.11345549 850.55546771 44.8125 851.25 C35.59454173 852.59242111 26.30044818 852.8558552 17 853.125 C16.26281738 853.14836426 15.52563477 853.17172852 14.76611328 853.19580078 C3.83873828 853.49729803 -7.06359275 852.95593199 -17.97332764 852.37734985 C-19.56569161 852.29291397 -21.15818246 852.21083585 -22.75079346 852.13119507 C-25.00897132 852.01610023 -27.2661331 851.88882045 -29.5234375 851.7578125 C-30.54265289 851.70765236 -30.54265289 851.70765236 -31.5824585 851.65647888 C-37.07984587 851.31381169 -41.17763433 849.6254859 -46 847.125 C-46 846.465 -46 845.805 -46 845.125 C-44.046875 844.47395833 -42.09375 843.82291667 -40.140625 843.171875 C-37.55252001 841.90615942 -35.98852438 840.1863641 -34 838.125 C-34.72590332 838.0748877 -35.45180664 838.02477539 -36.19970703 837.97314453 C-39.50876123 837.74014231 -42.81682713 837.49518538 -46.125 837.25 C-47.83816406 837.13205078 -47.83816406 837.13205078 -49.5859375 837.01171875 C-50.69453125 836.92792969 -51.803125 836.84414063 -52.9453125 836.7578125 C-53.96125488 836.68449707 -54.97719727 836.61118164 -56.02392578 836.53564453 C-59.2076238 836.09635166 -61.97176508 835.18265176 -65 834.125 C-67.53374783 833.73602379 -70.0770639 833.40642884 -72.625 833.125 C-74.04966451 832.95729626 -75.47414381 832.78801198 -76.8984375 832.6171875 C-77.59549805 832.53436523 -78.29255859 832.45154297 -79.01074219 832.36621094 C-86.90949414 831.40843395 -94.04274388 829.85953207 -101.53515625 827.19140625 C-105.8103347 825.87559597 -110.11286357 825.03831256 -114.5 824.1875 C-121.09052988 822.89077011 -126.94442019 821.16632466 -133.078125 818.359375 C-138.53721147 816.05312992 -144.29098672 814.6757839 -150 813.125 C-150.99 812.795 -151.98 812.465 -153 812.125 C-153 811.465 -153 810.805 -153 810.125 C-153.87269531 809.99996094 -154.74539063 809.87492188 -155.64453125 809.74609375 C-167.56121789 807.54032754 -178.26269393 800.97209911 -188.80273438 795.29248047 C-191.77599778 793.71268651 -194.78763699 792.2285711 -197.8125 790.75 C-201.76410245 788.79615212 -205.37882241 786.65140297 -209 784.125 C-211.31331577 782.75309494 -213.65308474 781.43927254 -216 780.125 C-216 779.465 -216 778.805 -216 778.125 C-216.56203125 778.01285156 -217.1240625 777.90070312 -217.703125 777.78515625 C-220.31513108 777.03442661 -222.39471322 775.91332624 -224.75 774.5625 C-225.54921875 774.10746094 -226.3484375 773.65242187 -227.171875 773.18359375 C-227.77515625 772.83425781 -228.3784375 772.48492188 -229 772.125 C-229 771.465 -229 770.805 -229 770.125 C-229.886875 769.8775 -230.77375 769.63 -231.6875 769.375 C-235.68309427 767.86722858 -238.41669828 765.79090877 -241.34765625 762.70703125 C-243.33971205 760.79974378 -245.4763466 759.31048882 -247.75 757.75 C-248.63558594 757.13640625 -249.52117187 756.5228125 -250.43359375 755.890625 C-251.96596871 754.83638835 -253.49943701 753.78373402 -255.03515625 752.734375 C-258.74616127 750.15706162 -261.85245503 747.3553751 -265 744.125 C-265.928125 743.403125 -266.85625 742.68125 -267.8125 741.9375 C-268.534375 741.339375 -269.25625 740.74125 -270 740.125 C-270 739.465 -270 738.805 -270 738.125 C-270.70125 737.939375 -271.4025 737.75375 -272.125 737.5625 C-275.57056044 735.83971978 -277.14497268 733.74808376 -279.52734375 730.79296875 C-281.40917148 728.66156175 -283.53585555 727.5150302 -286 726.125 C-289.06861691 723.37111303 -291.53250863 720.45065212 -293.9375 717.125 C-295.85051341 714.49522445 -297.69609347 712.38829858 -300.25 710.375 C-302.91683843 708.19304128 -303.56722126 707.08607607 -305 704.125 C-305.78375 703.50625 -306.5675 702.8875 -307.375 702.25 C-310.34595355 699.84494236 -311.91767571 697.31355907 -314 694.125 C-314.75667969 693.37347656 -315.51335937 692.62195313 -316.29296875 691.84765625 C-319.23121687 688.89244854 -321.77322567 685.79541379 -324.3125 682.5 C-324.76689453 681.92765625 -325.22128906 681.3553125 -325.68945312 680.765625 C-329 676.48431626 -329 676.48431626 -329 673.125 C-329.5775 672.939375 -330.155 672.75375 -330.75 672.5625 C-333.57590393 670.75706138 -334.49018833 668.82475451 -335.97265625 665.87890625 C-337.09895847 663.95605569 -338.41841605 662.68661446 -340 661.125 C-340.93490535 659.81876605 -341.83060271 658.48368399 -342.6875 657.125 C-343.12449219 656.444375 -343.56148438 655.76375 -344.01171875 655.0625 C-345 653.125 -345 653.125 -345 650.125 C-345.66 650.125 -346.32 650.125 -347 650.125 C-347.40992188 649.34253906 -347.81984375 648.56007813 -348.2421875 647.75390625 C-348.78101563 646.74199219 -349.31984375 645.73007812 -349.875 644.6875 C-350.40867187 643.67816406 -350.94234375 642.66882813 -351.4921875 641.62890625 C-352.75654114 639.02359558 -352.75654114 639.02359558 -355 638.125 C-356.10905121 636.01320561 -357.139927 633.85989529 -358.125 631.6875 C-358.66382813 630.51316406 -359.20265625 629.33882812 -359.7578125 628.12890625 C-361 625.125 -361 625.125 -361 623.125 C-361.66 623.125 -362.32 623.125 -363 623.125 C-363.81917642 621.39898621 -364.63006016 619.6690353 -365.4375 617.9375 C-365.88996094 616.97457031 -366.34242188 616.01164063 -366.80859375 615.01953125 C-367.90381422 612.35868414 -368.54954796 609.95715245 -369 607.125 C-369.66 607.125 -370.32 607.125 -371 607.125 C-372.00419637 604.6683053 -373.00350501 602.20981647 -374 599.75 C-374.28617188 599.05132813 -374.57234375 598.35265625 -374.8671875 597.6328125 C-377 592.3515625 -377 592.3515625 -377 590.125 C-377.66 590.125 -378.32 590.125 -379 590.125 C-380.00577013 587.35613877 -381.00480147 584.58515896 -382 581.8125 C-382.28617188 581.02681641 -382.57234375 580.24113281 -382.8671875 579.43164062 C-383.13789063 578.67431641 -383.40859375 577.91699219 -383.6875 577.13671875 C-384.06455078 576.09197388 -384.06455078 576.09197388 -384.44921875 575.02612305 C-385 573.125 -385 573.125 -385 570.125 C-385.66 570.125 -386.32 570.125 -387 570.125 C-388.00868917 566.71083753 -389.00542321 563.29329771 -390 559.875 C-390.28617188 558.90691406 -390.57234375 557.93882812 -390.8671875 556.94140625 C-391.13789063 556.00683594 -391.40859375 555.07226562 -391.6875 554.109375 C-391.93886719 553.25053711 -392.19023437 552.39169922 -392.44921875 551.50683594 C-393 549.125 -393 549.125 -393 545.125 C-393.66 545.125 -394.32 545.125 -395 545.125 C-395.20157715 544.31345459 -395.4031543 543.50190918 -395.61083984 542.66577148 C-396.36654248 539.62581547 -397.12334117 536.58613493 -397.88085938 533.54663086 C-398.36671972 531.59574795 -398.8513394 529.6445562 -399.3359375 527.69335938 C-399.6453125 526.45263672 -399.9546875 525.21191406 -400.2734375 523.93359375 C-400.55622559 522.79720459 -400.83901367 521.66081543 -401.13037109 520.48999023 C-401.74030701 518.12987043 -402.40439637 515.78339856 -403.10791016 513.44946289 C-404 510.125 -404 510.125 -404 506.125 C-404.66 506.125 -405.32 506.125 -406 506.125 C-406 503.155 -406 500.185 -406 497.125 C-406.66 497.785 -407.32 498.445 -408 499.125 C-408.33 491.865 -408.66 484.605 -409 477.125 C-409.99 477.455 -410.98 477.785 -412 478.125 C-412.06058594 477.50753906 -412.12117188 476.89007812 -412.18359375 476.25390625 C-412.35910249 474.47991795 -412.54046989 472.70650304 -412.7265625 470.93359375 C-412.89944986 469.15779355 -413.04382726 467.37878317 -413.1484375 465.59765625 C-413.47693289 460.74645438 -413.47693289 460.74645438 -415.9375 456.625 C-417.92122549 455.09588768 -417.92122549 455.09588768 -420 454.125 C-420.625 452.0625 -420.625 452.0625 -421 450.125 C-422.32 451.775 -423.64 453.425 -425 455.125 C-425.88635376 445.12373951 -426.15741833 435.21585835 -426.13037109 425.18237305 C-426.12496703 422.79795087 -426.13037657 420.41371372 -426.13671875 418.02929688 C-426.14401917 403.25497862 -426.14401917 403.25497862 -425 396.125 C-424.67 395.795 -424.34 395.465 -424 395.125 C-424.00587411 393.37451389 -424.05484934 391.62408976 -424.125 389.875 C-424.18493585 385.22397834 -423.59461488 383.01692232 -421 379.125 C-420.66582071 375.4574787 -420.66582071 375.4574787 -421 372.125 C-421.33 371.795 -421.66 371.465 -422 371.125 C-422.12524459 369.33662378 -422.17573676 367.54271786 -422.1875 365.75 C-422.20167969 364.77289063 -422.21585937 363.79578125 -422.23046875 362.7890625 C-422 360.125 -422 360.125 -420 357.125 C-419.01 356.465 -418.02 355.805 -417 355.125 C-416.67 354.135 -416.34 353.145 -416 352.125 C-416.99 352.125 -417.98 352.125 -419 352.125 C-419 350.805 -419 349.485 -419 348.125 C-417.35 347.795 -415.7 347.465 -414 347.125 C-414.33 344.815 -414.66 342.505 -415 340.125 C-415.66 340.125 -416.32 340.125 -417 340.125 C-416.5206753 335.81107774 -415.2542015 333.95930453 -412 331.125 C-412.99 331.125 -413.98 331.125 -415 331.125 C-414.67 329.145 -414.34 327.165 -414 325.125 C-413.01 324.795 -412.02 324.465 -411 324.125 C-411.495 322.64 -411.495 322.64 -412 321.125 C-412.75 318.6875 -412.75 318.6875 -413 316.125 C-412.04701223 314.75766972 -411.04625409 313.42235507 -410 312.125 C-410 310.805 -410 309.485 -410 308.125 C-408.68 308.455 -407.36 308.785 -406 309.125 C-406 308.465 -406 307.805 -406 307.125 C-406.99 307.125 -407.98 307.125 -409 307.125 C-407.84131678 299.77514373 -405.70888924 292.87618002 -403.28515625 285.85546875 C-402.16483375 282.60346879 -401.10800233 279.33899058 -400.0625 276.0625 C-398.15755361 270.32442976 -395.79210105 264.82442578 -393.3671875 259.29296875 C-392.34948105 256.93479751 -391.41277094 254.60709817 -390.5625 252.1875 C-387.38967735 243.49509238 -383.34383963 234.82861414 -378.23046875 227.1171875 C-376.72210154 224.67506916 -375.50064438 222.14602292 -374.25 219.5625 C-368.79615198 208.48742243 -362.21433018 198.15706845 -355.04296875 188.125 C-353.574821 185.96909661 -352.27875398 183.89346643 -351.01953125 181.625 C-349.1146917 178.22785765 -346.90065094 175.19783321 -344.5 172.125 C-344.07420654 171.57884033 -343.64841309 171.03268066 -343.2097168 170.4699707 C-341.81257189 168.68342865 -340.40727068 166.90357472 -339 165.125 C-338.49807129 164.48868652 -337.99614258 163.85237305 -337.47900391 163.19677734 C-331.81638884 156.02816657 -326.14211639 148.89196372 -320 142.125 C-319.23945313 141.27292969 -318.47890625 140.42085937 -317.6953125 139.54296875 C-312.09450758 133.33554846 -306.32003192 127.31617932 -300.4375 121.375 C-299.73439697 120.65892578 -299.03129395 119.94285156 -298.30688477 119.20507812 C-297.64744873 118.54443359 -296.9880127 117.88378906 -296.30859375 117.203125 C-295.71876709 116.60918945 -295.12894043 116.01525391 -294.52124023 115.40332031 C-293 114.125 -293 114.125 -291 114.125 C-290.67 113.135 -290.34 112.145 -290 111.125 C-288.328125 109.6953125 -288.328125 109.6953125 -286.25 108.25 C-283.81384424 106.54841029 -281.75388326 104.87724521 -279.65234375 102.76171875 C-276.70942548 99.83613726 -273.59576948 97.33875088 -270.3125 94.8125 C-269.06609804 93.84414658 -267.82000608 92.87539401 -266.57421875 91.90625 C-265.96626465 91.43445313 -265.35831055 90.96265625 -264.73193359 90.4765625 C-262.34344274 88.6126373 -259.98361678 86.71402051 -257.625 84.8125 C-254.7055517 82.47598573 -251.78000857 80.15027904 -248.8125 77.875 C-248.24144531 77.43671875 -247.67039062 76.9984375 -247.08203125 76.546875 C-244.74246566 74.94912289 -242.30306521 73.57196655 -239.83569336 72.18261719 C-236.94712858 70.51839819 -234.16824532 68.69355316 -231.375 66.875 C-207.86477848 51.65057045 -207.86477848 51.65057045 -201.625 49.1875 C-199.14132781 48.18220411 -196.95237959 47.00844517 -194.625 45.6875 C-190.84193896 43.54897624 -187.01232624 41.80288188 -183 40.125 C-181.74642517 39.48613317 -180.49659713 38.83987741 -179.25 38.1875 C-175.13425565 36.0895914 -170.87220217 34.58887614 -166.51953125 33.05859375 C-163.88336338 32.137656 -163.88336338 32.137656 -161.0625 30.625 C-157.19070664 28.72861142 -153.20353476 27.48580151 -149.09765625 26.1875 C-145.93424176 25.15030752 -145.93424176 25.15030752 -142.71484375 23.68359375 C-138.42271428 21.80751686 -133.98983436 20.50351573 -129.5 19.1875 C-128.17452148 18.79618896 -128.17452148 18.79618896 -126.82226562 18.39697266 C-124.21687541 17.63242929 -121.60911633 16.87671815 -119 16.125 C-118.31808594 15.92729004 -117.63617188 15.72958008 -116.93359375 15.52587891 C-108.38346328 13.06927827 -99.78340218 11.19121086 -91.05078125 9.51904297 C-90.2515625 9.36580566 -89.45234375 9.21256836 -88.62890625 9.0546875 C-87.92838135 8.92304199 -87.22785645 8.79139648 -86.50610352 8.65576172 C-84.44719891 8.2197112 -82.40738144 7.69447266 -80.37573242 7.14526367 C-75.42038694 5.89577787 -70.43579758 5.38406311 -65.359375 4.87109375 C-64.35594055 4.76531509 -63.3525061 4.65953644 -62.31866455 4.55055237 C-59.12964105 4.21586066 -55.93984974 3.88921209 -52.75 3.5625 C-50.62364594 3.33968817 -48.49734328 3.11638526 -46.37109375 2.89257812 C-41.39868128 2.37156346 -36.42500666 1.86487252 -31.44995117 1.36975098 C-29.44597082 1.16955264 -27.44261508 0.96311056 -25.43945312 0.75488281 C-16.96970862 -0.05740326 -8.49949801 -0.03029637 0 0 Z M-403 291.125 C-402 293.125 -402 293.125 -402 293.125 Z M-407 492.125 C-406 494.125 -406 494.125 -406 494.125 Z " fill="#000000" transform="translate(514,85.875)"/>
<path d="M0 0 C3.22541077 1.44294692 3.78598737 2.91112812 5.375 6.0625 C6.17873366 8.79358877 6.87801387 11.46383916 7.50390625 14.234375 C7.69441559 15.0482518 7.88492493 15.8621286 8.08120728 16.70066833 C8.70976253 19.40245416 9.32422113 22.10720861 9.9375 24.8125 C10.37734684 26.72567035 10.81720714 28.6388376 11.25708008 30.55200195 C15.04931639 47.16610989 18.47266085 63.85246551 21.83203125 80.55859375 C24.09962221 91.83477371 26.43193842 103.08667356 28.9375 114.3125 C31.8952869 127.61272932 34.62661281 140.9549286 37.3125 154.3125 C37.51626251 155.31945923 37.72002502 156.32641846 37.92996216 157.3638916 C38.50832137 160.22614032 39.08124002 163.08942086 39.65234375 165.953125 C39.91427017 167.24609497 39.91427017 167.24609497 40.18148804 168.56518555 C40.41830795 169.76316772 40.41830795 169.76316772 40.65991211 170.98535156 C40.79868271 171.67937073 40.93745331 172.37338989 41.08042908 173.08843994 C41.375 175.0625 41.375 175.0625 41.375 179.0625 C42.08293701 178.6907666 42.79087402 178.3190332 43.52026367 177.93603516 C87.43405334 154.91685295 132.52389682 134.07088567 181.375 124.0625 C182.14811523 123.88895996 182.92123047 123.71541992 183.71777344 123.53662109 C195.00466982 121.01762501 206.29302003 120.75870399 217.8125 120.6875 C218.5430661 120.6794635 219.2736322 120.671427 220.02633667 120.66314697 C234.36571037 120.54339852 249.13883171 122.12999133 260.1875 132.25 C268.5828038 141.30025658 269.85057143 151.45889438 269.64453125 163.26171875 C268.42766318 193.44364356 243.70498109 220.04697325 224.375 241.0625 C222.89535559 242.72874255 221.41619744 244.39541702 219.9375 246.0625 C213.55123985 253.14969114 206.87816697 259.8934621 199.625 266.09375 C197.28637967 268.14004279 195.01481327 270.24599063 192.74438477 272.3671875 C187.45261408 277.30791461 182.08272668 282.06359165 176.43359375 286.59765625 C174.09503314 288.48224341 171.77854639 290.38470516 169.47265625 292.30859375 C161.3643005 299.06555687 153.1456911 305.5950545 144.66015625 311.87109375 C141.53709542 314.1838469 138.44777161 316.53604992 135.37109375 318.91015625 C126.13254014 326.03407711 116.82316433 332.94173972 107.14648438 339.46044922 C101.4148608 343.32480592 95.81082809 347.33185811 90.26806641 351.4621582 C86.70693566 354.11221846 83.07582961 356.61238236 79.375 359.0625 C79.64763672 360.40211792 79.64763672 360.40211792 79.92578125 361.76879883 C80.59900251 365.08376622 81.26961911 368.39923842 81.93847656 371.71508789 C82.22844935 373.14986936 82.5194576 374.58444196 82.81152344 376.01879883 C83.23124487 378.08100157 83.64723205 380.14392771 84.0625 382.20703125 C84.43955078 384.06871948 84.43955078 384.06871948 84.82421875 385.96801758 C85.375 389.0625 85.375 389.0625 85.375 392.0625 C86.60053589 391.69354614 86.60053589 391.69354614 87.85083008 391.31713867 C97.17826927 388.57300462 106.552821 386.38448832 116.0625 384.375 C117.66699802 384.03254643 119.27143259 383.68979545 120.87580872 383.34677124 C125.15477935 382.43371943 129.43523 381.52780975 133.71619034 380.62413788 C136.39152142 380.05901007 139.06645548 379.49203578 141.74130249 378.92462158 C171.66845248 372.5801249 201.65357622 366.61458478 231.70863342 360.90870667 C241.29801274 359.0858719 250.87047181 357.18623405 260.4375 355.25 C271.54858299 353.00637483 282.67293848 350.84724182 293.8125 348.75 C295.31983158 348.46577797 296.82715573 348.18151652 298.33447266 347.8972168 C311.2085472 345.46986533 311.2085472 345.46986533 316.40771484 344.49224854 C324.21104026 343.0247151 332.01247958 341.54749772 339.8125 340.0625 C341.49354828 339.74329086 341.49354828 339.74329086 343.20855713 339.41763306 C359.07638906 336.3983224 359.07638906 336.3983224 374.8359375 332.8671875 C375.52915604 332.70011292 376.22237457 332.53303833 376.93659973 332.36090088 C379.97854952 331.61995839 383.01012846 330.85128377 386.03491211 330.04296875 C394.04428039 328.00093782 402.12759367 327.02360873 410.375 328.0625 C412.3059082 329.43310547 412.3059082 329.43310547 413.375 331.0625 C413.375 333.5 413.375 333.5 412.375 336.0625 C408.20555458 340.17471773 403.72901304 341.57599639 398.25 343.1875 C397.27844971 343.47753906 396.30689941 343.76757812 395.3059082 344.06640625 C384.81537663 347.09307963 374.19316704 349.58376798 363.5625 352.0625 C362.71951355 352.2597467 361.8765271 352.45699341 361.00799561 352.66021729 C343.20366681 356.805887 325.28799842 360.42359724 307.375 364.0625 C306.02266832 364.33737244 306.02266832 364.33737244 304.64301682 364.61779785 C291.26053181 367.33765027 277.87589904 370.0468202 264.49023438 372.75097656 C260.16681053 373.62443003 255.84357331 374.49879809 251.52050781 375.37402344 C230.61222913 379.60688635 209.70377725 383.83212058 188.7578125 387.875 C175.34903369 390.46326216 161.97535387 393.18694865 148.625 396.0625 C146.63962258 396.48707611 144.65418847 396.91138723 142.66870117 397.33544922 C133.57611203 399.28070375 124.48910081 401.24982628 115.41015625 403.2578125 C114.6533255 403.42488708 113.89649475 403.59196167 113.11672974 403.76409912 C109.64765236 404.53042159 106.17972512 405.30127418 102.71386719 406.08203125 C101.52567383 406.34628906 100.33748047 406.61054687 99.11328125 406.8828125 C98.09274658 407.11242676 97.07221191 407.34204102 96.02075195 407.57861328 C93.375 408.0625 93.375 408.0625 89.375 408.0625 C89.62174973 409.2586644 89.86849945 410.4548288 90.12272644 411.6872406 C111.12152959 513.49344907 111.12152959 513.49344907 118.42471313 549.72439575 C118.97149027 552.43633967 119.5213792 555.14762236 120.07406616 557.85836792 C120.82424683 561.54490334 121.56582555 565.23305698 122.3046875 568.921875 C122.51921066 569.96789383 122.73373383 571.01391266 122.95475769 572.09162903 C123.95801854 577.15561268 124.82364275 581.89751108 124.375 587.0625 C122.375 589.0625 122.375 589.0625 119.9375 589.5 C117.375 589.0625 117.375 589.0625 115.89038086 587.03100586 C114.08708281 583.49849402 112.78778394 579.89080337 111.56640625 576.12890625 C111.30871964 575.34334854 111.05103302 574.55779083 110.78553772 573.74842834 C107.61737488 563.92777845 104.9422863 553.97575267 102.3125 544 C102.03764771 542.96236511 101.76279541 541.92473022 101.47961426 540.85565186 C92.25461768 505.91662042 84.51088655 470.60501834 77.0625 435.25 C76.86910034 434.3351886 76.67570068 433.4203772 76.47644043 432.47784424 C75.94148895 429.93807082 75.41271104 427.39711092 74.88671875 424.85546875 C74.73118027 424.11667984 74.57564178 423.37789093 74.41539001 422.61671448 C73.74282497 419.32617552 73.375 416.44218074 73.375 413.0625 C47.40156124 420.07239828 21.75082528 427.62926381 -3.68438721 436.39465332 C-8.86648504 438.17803167 -14.05751208 439.93467152 -19.25 441.6875 C-20.63481567 442.16558105 -20.63481567 442.16558105 -22.04760742 442.65332031 C-30.41561723 445.48612236 -38.58280276 447.34478066 -47.4375 447.4375 C-48.68144531 447.46585938 -49.92539062 447.49421875 -51.20703125 447.5234375 C-55.19862435 446.98514266 -56.80018567 445.87164993 -59.625 443.0625 C-61.11231668 440.08786663 -61.0563052 438.38971157 -60.625 435.0625 C-47.14371202 408.32939278 0.32822551 388.44388945 24.50292969 373.34912109 C26.52754525 372.08414025 28.55036351 370.81627782 30.57128906 369.54541016 C35.38091605 366.52576101 40.20805754 363.55746785 45.11328125 360.6953125 C46.00313721 360.16502441 46.89299316 359.63473633 47.80981445 359.08837891 C49.47437758 358.09822762 51.15089461 357.12780233 52.84057617 356.18115234 C53.57381104 355.73980957 54.3070459 355.2984668 55.0625 354.84375 C55.70574219 354.47314453 56.34898437 354.10253906 57.01171875 353.72070312 C59.27357346 350.96953601 58.65280747 348.52033959 58.375 345.0625 C57.93876109 342.17544637 57.34758425 339.3359526 56.72265625 336.484375 C56.54745453 335.65723999 56.37225281 334.83010498 56.19174194 333.97790527 C55.61344713 331.25468364 55.02538885 328.53366504 54.4375 325.8125 C54.02731962 323.88785639 53.61790899 321.96304859 53.20922852 320.03808594 C52.35899047 316.03645512 51.50544212 312.03555234 50.64941406 308.03515625 C48.86521713 299.68704783 47.11606659 291.33164071 45.36938477 282.97561646 C44.81285842 280.31421404 44.25515364 277.65306064 43.69726562 274.99194336 C41.81162482 265.98964761 39.94342636 256.98401614 38.1015625 247.97265625 C37.91801712 247.07499542 37.73447174 246.17733459 37.54536438 245.25247192 C36.67308153 240.98367979 35.80328703 236.71440071 34.93725586 232.44433594 C34.62616732 230.917312 34.31505225 229.39029348 34.00390625 227.86328125 C33.79980637 226.85056908 33.79980637 226.85056908 33.59158325 225.81739807 C32.90415524 222.45091955 32.14350264 219.11862316 31.28100586 215.79370117 C30.4498267 212.37065856 30.20003987 209.56170264 30.375 206.0625 C10.15365102 217.01331649 -8.96983522 229.63810443 -27.625 243.0625 C-28.43598145 243.64531738 -29.24696289 244.22813477 -30.08251953 244.82861328 C-41.23883576 252.8754645 -52.06326649 261.25075585 -62.625 270.0625 C-63.21539062 270.55379395 -63.80578125 271.04508789 -64.4140625 271.55126953 C-70.75976536 276.84231942 -77.00783205 282.22852995 -83.11328125 287.796875 C-84.51857142 289.06447733 -85.93038142 290.32524714 -87.36499023 291.55957031 C-92.8229297 296.25933065 -97.97240577 301.2183239 -103.0625 306.3125 C-104.32416992 307.57320312 -104.32416992 307.57320312 -105.61132812 308.859375 C-110.59839995 313.88913771 -115.20602301 318.98072332 -119.578125 324.55078125 C-122.0505377 327.58467699 -124.65781452 330.43525599 -127.375 333.25 C-128.69757813 334.63251953 -128.69757813 334.63251953 -130.046875 336.04296875 C-132.625 338.0625 -132.625 338.0625 -135.328125 338.48828125 C-137.625 338.0625 -137.625 338.0625 -139.625 336.0625 C-140.96946225 327.9957265 -137.17203499 322.520124 -132.625 316.0625 C-129.77052233 312.58094024 -126.72597933 309.32377951 -123.625 306.0625 C-122.43041441 304.69365139 -121.24242454 303.31900618 -120.0625 301.9375 C-116.9985209 298.41036126 -113.72547324 295.14080926 -110.39453125 291.8671875 C-108.50487987 290.0077386 -108.50487987 290.0077386 -106.625 287.5 C-104.31549881 284.68529543 -101.72926026 282.50617076 -98.96484375 280.1484375 C-96.24375403 277.72262463 -93.68210404 275.15788799 -91.125 272.5625 C-86.78816426 268.17922186 -82.3342673 264.04145312 -77.625 260.0625 C-76.24634766 258.86753906 -76.24634766 258.86753906 -74.83984375 257.6484375 C-66.70133465 250.62535858 -58.25859 244.04655304 -49.66259766 237.59423828 C-47.85602785 236.23617227 -46.05813131 234.8675369 -44.26171875 233.49609375 C-22.15115532 216.78741221 1.57623077 202.20859426 25.375 188.0625 C24.04430557 177.75266439 22.16286199 167.62867048 20.03125 157.4609375 C19.70204071 155.87358953 19.37330222 154.28614385 19.04499817 152.6986084 C18.35086203 149.34468454 17.65455338 145.99122317 16.95645142 142.63812256 C15.12868973 133.85515319 13.31932108 125.06838707 11.51171875 116.28125 C11.33208273 115.40836208 11.15244671 114.53547417 10.96736717 113.6361351 C6.37809586 91.32139853 2.03702906 68.96225597 -2.15362549 46.56921387 C-2.7412089 43.44451481 -3.33974564 40.32197508 -3.9389801 37.19949341 C-4.55243336 33.98896894 -5.15088235 30.77573047 -5.75 27.5625 C-5.95069092 26.52464355 -6.15138184 25.48678711 -6.3581543 24.41748047 C-7.57794872 17.70719213 -8.38823404 10.8756136 -7.625 4.0625 C-5.14624143 0.8755247 -4.01279409 0.09554272 0 0 Z " fill="#FBFBFB" transform="translate(392.625,216.9375)"/>
<path d="M0 0 C4.03811791 4.14165939 5.80783947 7.80936996 6.3125 13.5625 C5.38314551 39.82899263 -16.44798241 65.00111217 -33.515625 83.3046875 C-35.44022101 85.39269261 -37.29671884 87.50596233 -39.14453125 89.66015625 C-43.67636816 94.85754183 -48.55307685 99.69890595 -53.4375 104.5625 C-54.34048828 105.46935547 -55.24347656 106.37621094 -56.17382812 107.31054688 C-61.28752618 112.41683914 -66.49632638 117.31829881 -72 122 C-73.11799799 122.97302787 -74.23521464 123.94695439 -75.3515625 124.921875 C-83.37651668 131.8723938 -91.59703675 138.51358794 -100 145 C-101.01191406 145.78632813 -102.02382813 146.57265625 -103.06640625 147.3828125 C-117.71223057 158.71789493 -132.52290349 169.81864381 -147.71972656 180.40527344 C-150.28642903 182.20031632 -152.84268085 184.00972175 -155.3984375 185.8203125 C-157.22389288 187.10946769 -159.04941268 188.39853167 -160.875 189.6875 C-162.16954102 190.60704468 -162.16954102 190.60704468 -163.49023438 191.54516602 C-164.69776367 192.39485962 -164.69776367 192.39485962 -165.9296875 193.26171875 C-167.00065674 194.01908325 -167.00065674 194.01908325 -168.09326172 194.79174805 C-170 196 -170 196 -173 197 C-175.76176743 183.84204939 -178.48359014 170.67634949 -181.15625 157.5 C-181.29188354 156.83137939 -181.42751709 156.16275879 -181.56726074 155.47387695 C-182.68651373 149.95513176 -183.80418835 144.43606712 -184.92181396 138.91699219 C-185.89506958 134.11118139 -186.86892584 129.30549289 -187.84375 124.5 C-187.97903421 123.833048 -188.11431843 123.166096 -188.25370216 122.47893333 C-190.2441357 112.67093682 -192.26686452 102.87001207 -194.31510925 93.07392883 C-196.01312663 84.95144082 -197.67847827 76.82311745 -199.3125 68.6875 C-199.44406494 68.03998779 -199.57562988 67.39247559 -199.71118164 66.7253418 C-200.09801846 64.82136825 -200.4807238 62.91655674 -200.86328125 61.01171875 C-201.08282471 59.92334717 -201.30236816 58.83497559 -201.52856445 57.71362305 C-202 55 -202 55 -202 52 C-44.77027124 -33.40474985 -44.77027124 -33.40474985 0 0 Z " fill="#000000" transform="translate(640,361)"/>
<path d="M0 0 C0.99 0.33 1.98 0.66 3 1 C4.65 9.25 6.3 17.5 8 26 C-0.99322044 29.37245767 -0.99322044 29.37245767 -4.20825195 30.25170898 C-5.30102699 30.55428619 -5.30102699 30.55428619 -6.4158783 30.86297607 C-7.18227127 31.07190491 -7.94866425 31.28083374 -8.73828125 31.49609375 C-10.4472694 31.97099942 -12.15608389 32.44653036 -13.86474609 32.92260742 C-14.75377625 33.1694931 -15.6428064 33.41637878 -16.55877686 33.67074585 C-35.96864871 39.07528328 -55.0297535 45.19412676 -73.99951172 51.9753418 C-76.33047071 52.77135765 -78.59995445 53.46210961 -81 54 C-77.3988382 50.16438535 -73.60723692 47.19219859 -69.1796875 44.33984375 C-68.52784988 43.91320435 -67.87601227 43.48656494 -67.204422 43.04699707 C-65.09851956 41.67106355 -62.98699134 40.30406506 -60.875 38.9375 C-59.41488084 37.98677739 -57.95500245 37.0356849 -56.49536133 36.08422852 C-46.7913041 29.76809004 -37.04333776 23.52354117 -27.22265625 17.39013672 C-23.03671756 14.77208587 -18.86271657 12.13510214 -14.6875 9.5 C-13.9039917 9.00685303 -13.1204834 8.51370605 -12.31323242 8.00561523 C-11.57435791 7.53969971 -10.8354834 7.07378418 -10.07421875 6.59375 C-9.37603027 6.15546875 -8.6778418 5.7171875 -7.95849609 5.265625 C-6.1439991 4.09305551 -4.39882702 2.85352096 -2.64453125 1.59375 C-1.77183594 1.0678125 -0.89914062 0.541875 0 0 Z " fill="#030303" transform="translate(454,587)"/>
</svg>
